<?xml version="1.0" encoding="UTF-8" standalone="no"?>
<!-- Created with Inkscape (http://www.inkscape.org/) -->

<svg
   width="257.11969mm"
   height="93.048317mm"
   viewBox="0 0 257.11969 93.048317"
   version="1.1"
   id="svg1"
   xmlns:inkscape="http://www.inkscape.org/namespaces/inkscape"
   xmlns:sodipodi="http://sodipodi.sourceforge.net/DTD/sodipodi-0.dtd"
   xmlns="http://www.w3.org/2000/svg"
   xmlns:svg="http://www.w3.org/2000/svg">
  <sodipodi:namedview
     id="namedview1"
     pagecolor="#505050"
     bordercolor="#ffffff"
     borderopacity="1"
     inkscape:showpageshadow="0"
     inkscape:pageopacity="0"
     inkscape:pagecheckerboard="1"
     inkscape:deskcolor="#505050"
     inkscape:document-units="mm" />
  <defs
     id="defs1">
    <clipPath
       clipPathUnits="userSpaceOnUse"
       id="clipPath34">
      <path
         d="M 0,409 H 1022 V 0 H 0 Z"
         transform="translate(-249.11703,-136.90201)"
         id="path34" />
    </clipPath>
    <clipPath
       clipPathUnits="userSpaceOnUse"
       id="clipPath36">
      <path
         d="M 0,409 H 1022 V 0 H 0 Z"
         transform="translate(-335.22948,-130.35781)"
         id="path36" />
    </clipPath>
    <clipPath
       clipPathUnits="userSpaceOnUse"
       id="clipPath38">
      <path
         d="M 0,409 H 1022 V 0 H 0 Z"
         transform="translate(-365.45651,-108.2327)"
         id="path38" />
    </clipPath>
    <clipPath
       clipPathUnits="userSpaceOnUse"
       id="clipPath40">
      <path
         d="M 0,409 H 1022 V 0 H 0 Z"
         transform="translate(-480.13451,-158.924)"
         id="path40" />
    </clipPath>
    <clipPath
       clipPathUnits="userSpaceOnUse"
       id="clipPath42">
      <path
         d="M 0,409 H 1022 V 0 H 0 Z"
         transform="translate(-526.46201,-131.8124)"
         id="path42" />
    </clipPath>
    <clipPath
       clipPathUnits="userSpaceOnUse"
       id="clipPath44">
      <path
         d="M 0,409 H 1022 V 0 H 0 Z"
         transform="translate(-633.14134,-136.38331)"
         id="path44" />
    </clipPath>
    <clipPath
       clipPathUnits="userSpaceOnUse"
       id="clipPath46">
      <path
         d="M 0,409 H 1022 V 0 H 0 Z"
         transform="translate(-694.21872,-129.21571)"
         id="path46" />
    </clipPath>
    <clipPath
       clipPathUnits="userSpaceOnUse"
       id="clipPath48">
      <path
         d="M 0,409 H 1022 V 0 H 0 Z"
         transform="translate(-2.5000001e-5)"
         id="path48" />
    </clipPath>
    <clipPath
       clipPathUnits="userSpaceOnUse"
       id="clipPath50">
      <path
         d="M 0,409 H 1022 V 0 H 0 Z"
         transform="translate(-2.5000001e-5)"
         id="path50" />
    </clipPath>
    <clipPath
       clipPathUnits="userSpaceOnUse"
       id="clipPath52">
      <path
         d="M 0,409 H 1022 V 0 H 0 Z"
         transform="translate(-765.26742,-106.57111)"
         id="path52" />
    </clipPath>
    <clipPath
       clipPathUnits="userSpaceOnUse"
       id="clipPath54">
      <path
         d="M 0,409 H 1022 V 0 H 0 Z"
         transform="translate(-868.00002,-136.38331)"
         id="path54" />
    </clipPath>
    <clipPath
       clipPathUnits="userSpaceOnUse"
       id="clipPath56">
      <path
         d="M 0,409 H 1022 V 0 H 0 Z"
         transform="translate(-167.2348,-154.4615)"
         id="path56" />
    </clipPath>
    <clipPath
       clipPathUnits="userSpaceOnUse"
       id="clipPath58">
      <path
         d="M 0,409 H 1022 V 0 H 0 Z"
         transform="translate(-241.70148,-187.0895)"
         id="path58" />
    </clipPath>
    <clipPath
       clipPathUnits="userSpaceOnUse"
       id="clipPath60">
      <path
         d="M 0,409 H 1022 V 0 H 0 Z"
         transform="translate(-435.23711,-273.77371)"
         id="path60" />
    </clipPath>
    <clipPath
       clipPathUnits="userSpaceOnUse"
       id="clipPath62">
      <path
         d="M 0,409 H 1022 V 0 H 0 Z"
         transform="translate(-430.88959,-265.85911)"
         id="path62" />
    </clipPath>
    <clipPath
       clipPathUnits="userSpaceOnUse"
       id="clipPath64">
      <path
         d="M 0,409 H 1022 V 0 H 0 Z"
         transform="translate(-2.5000001e-5)"
         id="path64" />
    </clipPath>
  </defs>
  <g
     inkscape:label="Camada 1"
     inkscape:groupmode="layer"
     id="layer1"
     transform="translate(-17.462487,-106.62708)">
    <g
       id="g1">
      <path
         id="path33"
         d="M 0,0 H 15.894 C 14.855,4.571 12.362,6.856 7.791,6.856 3.428,6.856 1.039,4.467 0,0 M 37.188,-13.815 H 0 c 0.935,-3.843 3.22,-6.129 8.518,-6.129 4.052,0 7.272,1.455 9.557,3.947 l 16.1,-7.79 C 29.501,-30.954 20.256,-36.149 8.83,-36.149 c -18.49,0 -30.955,11.427 -30.955,28.774 0,18.178 11.945,30.436 29.916,30.436 17.971,0 29.916,-11.427 29.916,-28.67 0,-2.805 -0.208,-5.817 -0.519,-8.206"
         style="fill:#fe7750;fill-opacity:1;fill-rule:nonzero;stroke:none;stroke-width:1.00063;stroke-dasharray:none"
         transform="matrix(0.35277776,0,0,-0.35277776,56.25401,178.86105)"
         clip-path="url(#clipPath34)"
         inkscape:export-filename="..\assets\logo_principal_laranja.png"
         inkscape:export-xdpi="96"
         inkscape:export-ydpi="96" />
      <path
         id="path35"
         d="m 0,0 c 0,7.064 -4.258,11.842 -10.595,11.842 -6.233,0 -10.491,-4.778 -10.491,-11.946 0,-6.959 4.258,-11.737 10.491,-11.737 C -4.258,-11.841 0,-7.167 0,0 M 20.775,28.566 V -28.565 H 0.831 l -0.311,5.816 c -3.74,-4.362 -9.037,-6.855 -15.789,-6.855 -14.855,0 -27.216,11.634 -27.216,29.292 0,17.867 12.361,29.917 27.216,29.917 6.752,0 12.049,-2.493 15.789,-6.96 l 0.311,5.921 z"
         style="fill:#fe7750;fill-opacity:1;fill-rule:nonzero;stroke:none;stroke-width:1.00063;stroke-dasharray:none"
         transform="matrix(0.35277776,0,0,-0.35277776,86.632569,181.1697)"
         clip-path="url(#clipPath36)" />
      <path
         id="path37"
         d="m 0,0 7.687,12.465 c 5.921,-2.909 11.01,-3.844 16.308,-3.844 2.597,0 4.466,0.52 4.466,1.871 0,1.661 -2.908,2.388 -7.582,3.531 l -3.428,0.832 C 7.168,17.347 0.208,21.191 0.208,30.643 c 0,12.673 9.764,21.087 24.722,21.087 9.557,0 17.763,-2.182 23.579,-6.233 l -8.621,-13.4 c -4.467,2.286 -8.933,3.428 -13.608,3.428 -3.012,0 -4.985,-0.415 -4.985,-1.558 0,-1.35 2.7,-2.181 6.544,-3.116 L 31.163,30.02 C 42.069,27.319 49.548,22.645 49.548,11.945 49.548,0.208 39.057,-7.479 23.684,-7.479 14.335,-7.479 6.129,-5.09 0,0"
         style="fill:#fe7750;fill-opacity:1;fill-rule:nonzero;stroke:none;stroke-width:1.00063;stroke-dasharray:none"
         transform="matrix(0.35277776,0,0,-0.35277776,97.295991,188.97494)"
         clip-path="url(#clipPath38)" />
      <path
         id="path39"
         d="m 0,0 v -50.587 c 0,-18.386 -13.608,-30.436 -34.175,-30.436 -8.933,0 -16.932,2.389 -22.541,6.96 l 4.466,16.204 c 5.817,-4.362 11.635,-5.401 17.555,-5.401 7.583,0 12.881,4.155 13.816,10.699 -4.155,-3.843 -9.557,-5.61 -14.647,-5.61 -12.361,0 -20.671,8.83 -20.671,22.438 V 0 h 20.775 v -32.721 c 0,-4.57 2.908,-7.687 7.375,-7.687 4.363,0 7.272,3.117 7.272,7.687 V 0 Z"
         style="fill:#fe7750;fill-opacity:1;fill-rule:nonzero;stroke:none;stroke-width:1.00063;stroke-dasharray:none"
         transform="matrix(0.35277776,0,0,-0.35277776,137.75184,171.09218)"
         clip-path="url(#clipPath40)" />
      <path
         id="path41"
         d="M 0,0 H 36.149 C 35.525,12.257 28.669,19.944 18.075,19.944 7.479,19.944 0.727,12.257 0,0 M 43.836,-5.297 H 0 c 0.935,-11.946 7.375,-19.737 18.282,-19.737 7.375,0 13.504,3.635 17.763,9.349 l 5.713,-3.22 C 36.46,-26.8 28.047,-31.059 18.282,-31.059 c -15.685,0 -26.281,11.427 -26.281,28.566 0,17.036 10.388,28.462 26.074,28.462 15.477,0 25.864,-11.114 25.864,-27.838 0,-0.936 0,-2.598 -0.103,-3.428"
         style="fill:#fe7750;fill-opacity:1;fill-rule:nonzero;stroke:none;stroke-width:1.00063;stroke-dasharray:none"
         transform="matrix(0.35277776,0,0,-0.35277776,154.09515,180.65655)"
         clip-path="url(#clipPath42)" />
      <path
         id="path43"
         d="m 0,0 v -34.591 h -7.478 v 33.136 c 0,9.869 -6.96,16.309 -17.348,16.309 -10.491,0 -17.451,-6.44 -17.451,-16.309 v -33.136 h -7.479 v 54.95 h 7.271 l 0.104,-9.245 c 3.636,6.44 10.284,10.284 19.84,10.284 C -9.037,21.398 0,12.88 0,0"
         style="fill:#fe7750;fill-opacity:1;fill-rule:nonzero;stroke:none;stroke-width:1.00063;stroke-dasharray:none"
         transform="matrix(0.35277776,0,0,-0.35277776,191.72925,179.04403)"
         clip-path="url(#clipPath44)" />
      <path
         id="path45"
         d="m 0,0 c 0,13.296 -8.103,22.021 -20.152,22.021 -12.153,0 -20.256,-8.725 -20.256,-21.917 0,-13.296 8.103,-22.126 20.256,-22.126 C -8.103,-22.022 0,-13.192 0,0 m 7.479,27.526 v -51.002 c 0,-16.724 -12.05,-27.839 -30.124,-27.839 -9.66,0 -17.97,2.389 -24.203,7.168 l 1.663,6.024 c 5.92,-4.258 13.088,-6.752 22.229,-6.752 13.815,0 22.956,8.726 22.956,21.815 v 7.478 c -3.74,-7.79 -11.011,-12.88 -21.917,-12.88 -15.374,0 -26.385,11.426 -26.385,28.67 0,17.035 11.011,28.357 26.385,28.357 10.906,0 18.177,-5.089 21.917,-12.88 l 0.208,11.841 z"
         style="fill:#fe7750;fill-opacity:1;fill-rule:nonzero;stroke:none;stroke-width:1.00063;stroke-dasharray:none"
         transform="matrix(0.35277776,0,0,-0.35277776,213.27599,181.5726)"
         clip-path="url(#clipPath46)" />
      <path
         id="path47"
         d="m 718.836,182.816 h 7.479 v -81.023 h -7.479 z"
         style="fill:#fe7750;fill-opacity:1;fill-rule:nonzero;stroke:none;stroke-width:1.00063;stroke-dasharray:none"
         transform="matrix(0.35277776,0,0,-0.35277776,-31.62893,227.15703)"
         clip-path="url(#clipPath48)" />
      <path
         id="path49"
         d="m 743.766,156.742 h 7.479 v -54.95 h -7.479 z m -1.349,18.802 c 0,2.908 2.181,5.09 5.089,5.09 2.804,0 4.986,-2.182 4.986,-5.09 0,-2.804 -2.182,-4.986 -4.986,-4.986 -2.908,0 -5.089,2.182 -5.089,4.986"
         style="fill:#fe7750;fill-opacity:1;fill-rule:nonzero;stroke:none;stroke-width:1.00063;stroke-dasharray:none"
         transform="matrix(0.35277776,0,0,-0.35277776,-31.62893,227.15703)"
         clip-path="url(#clipPath50)" />
      <path
         id="path51"
         d="M 0,0 3.116,4.674 C 7.687,1.35 13.192,0.208 18.906,0.208 c 7.79,0 12.984,3.635 12.984,9.245 0,5.193 -4.882,8.101 -11.53,9.972 l -5.921,1.765 c -8.621,2.389 -14.543,5.817 -14.543,14.023 0,9.661 7.687,15.997 19.322,15.997 7.374,0 13.399,-1.558 18.697,-4.986 l -3.22,-5.09 c -4.675,2.909 -9.661,4.051 -14.959,4.051 -7.27,0 -12.153,-3.427 -12.153,-8.829 0,-5.09 4.259,-7.375 10.18,-9.037 l 5.921,-1.766 c 8.31,-2.285 15.892,-6.44 15.892,-15.477 0,-9.557 -7.998,-15.894 -20.67,-15.894 C 11.115,-5.818 4.259,-3.844 0,0"
         style="fill:#fe7750;fill-opacity:1;fill-rule:nonzero;stroke:none;stroke-width:1.00063;stroke-dasharray:none"
         transform="matrix(0.35277776,0,0,-0.35277776,238.34039,189.56112)"
         clip-path="url(#clipPath52)" />
      <path
         id="path53"
         d="m 0,0 v -34.591 h -7.478 v 33.136 c 0,9.869 -6.96,16.309 -17.348,16.309 -10.491,0 -17.451,-6.44 -17.451,-16.309 v -33.136 h -7.479 v 81.023 h 7.479 V 11.218 c 3.532,6.44 10.284,10.18 19.736,10.18 C -9.037,21.398 0,12.88 0,0"
         style="fill:#fe7750;fill-opacity:1;fill-rule:nonzero;stroke:none;stroke-width:1.00063;stroke-dasharray:none"
         transform="matrix(0.35277776,0,0,-0.35277776,274.58217,179.04403)"
         clip-path="url(#clipPath54)" />
      <path
         id="path55"
         d="m 0,0 h -28.078 l 23.305,-50.107 h 33.794 c -5.788,7.867 -11.576,15.735 -17.364,23.602 z"
         style="fill:#fe7750;fill-opacity:1;fill-rule:nonzero;stroke:none;stroke-width:1.00063;stroke-dasharray:none"
         transform="matrix(0.35277776,0,0,-0.35277776,27.367781,172.66645)"
         clip-path="url(#clipPath56)" />
      <path
         id="path57"
         d="m 0,0 h -33.674 l -29.135,-59.133 c 7.713,-4.362 15.426,-8.724 23.139,-13.086 z"
         style="fill:#fe7750;fill-opacity:1;fill-rule:nonzero;stroke:none;stroke-width:1.00063;stroke-dasharray:none"
         transform="matrix(0.35277776,0,0,-0.35277776,53.637969,161.15601)"
         clip-path="url(#clipPath58)" />
      <path
         id="path59"
         d="m 0,0 0.038,-0.021 c -1.462,-2.631 -2.924,-5.263 -4.386,-7.894 h -25.433 l -17.541,37.713 h 21.133 L -17.416,9.85 4.513,54.355 h 25.344 z m 43.31,-31.099 v 12.242 73.36 0.18 c 0,1.543 -0.291,3.018 -0.8,4.395 -1.827,5.134 -6.624,8.808 -12.271,8.808 h -0.74 -81.533 -0.883 c -7.219,0 -13.072,-5.992 -13.072,-13.383 v -73.36 c 0,-7.392 5.853,-13.384 13.072,-13.384 h 4.565 c 4.595,-0.31 10.164,-0.081 16.879,0 H -9.83 c 10.358,0.544 16.95,-2.075 21.063,-4.581 5.955,-3.627 15.408,-12.31 24.868,-18.323 1.107,-0.704 3.52,-2.197 5.236,-1.309 1.858,0.961 1.931,4.212 1.963,7.198 0.068,6.303 0.067,12.357 0.01,18.157"
         style="fill:#fe7750;fill-opacity:1;fill-rule:nonzero;stroke:none;stroke-width:1.00063;stroke-dasharray:none"
         transform="matrix(0.35277776,0,0,-0.35277776,121.91304,130.57575)"
         clip-path="url(#clipPath60)" />
      <path
         id="path61"
         d="M 0,0 4.348,7.915 C -1.458,11.198 -7.263,14.481 -13.068,17.764 -8.712,11.843 -4.356,5.921 0,0"
         style="fill:#fe7750;fill-opacity:1;fill-rule:nonzero;stroke:none;stroke-width:1.00063;stroke-dasharray:none"
         transform="matrix(0.35277776,0,0,-0.35277776,120.37933,133.36785)"
         clip-path="url(#clipPath62)" />
      <path
         id="path63"
         d="m 580.799,261.129 h -55.157 v 6.774 h 55.157 z m 0,-20.321 h -55.157 v 6.774 h 55.157 z m 0,-22.256 h -55.157 v 6.774 h 55.157 z m 13.141,72.854 h -0.883 -81.532 -0.741 c -5.647,0 -10.444,-3.674 -12.271,-8.808 -0.509,-1.377 -0.8,-2.852 -0.8,-4.395 v -0.18 -73.36 -12.242 c -0.057,-5.8 -0.058,-11.854 0.01,-18.157 0.032,-2.986 0.105,-6.237 1.963,-7.198 1.716,-0.888 4.129,0.605 5.236,1.309 9.46,6.013 18.913,14.696 24.868,18.323 4.113,2.506 10.705,5.125 21.063,4.581 h 21.643 c 6.715,-0.081 12.284,-0.31 16.879,0 h 4.565 c 7.219,0 13.072,5.992 13.072,13.384 v 73.36 c 0,7.391 -5.853,13.383 -13.072,13.383"
         style="fill:#fe7750;fill-opacity:1;fill-rule:nonzero;stroke:none;stroke-width:1.00063;stroke-dasharray:none"
         transform="matrix(0.35277776,0,0,-0.35277776,-31.62893,227.15703)"
         clip-path="url(#clipPath64)" />
    </g>
  </g>
</svg>
