<?xml version="1.0" encoding="UTF-8" standalone="no"?>
<!-- Created with Inkscape (http://www.inkscape.org/) -->

<svg
   width="297.66583mm"
   height="107.72133mm"
   viewBox="0 0 297.66583 107.72133"
   version="1.1"
   id="svg1"
   xmlns:inkscape="http://www.inkscape.org/namespaces/inkscape"
   xmlns:sodipodi="http://sodipodi.sourceforge.net/DTD/sodipodi-0.dtd"
   xmlns="http://www.w3.org/2000/svg"
   xmlns:svg="http://www.w3.org/2000/svg">
  <sodipodi:namedview
     id="namedview1"
     pagecolor="#505050"
     bordercolor="#ffffff"
     borderopacity="1"
     inkscape:showpageshadow="0"
     inkscape:pageopacity="0"
     inkscape:pagecheckerboard="1"
     inkscape:deskcolor="#505050"
     inkscape:document-units="mm" />
  <defs
     id="defs1">
    <clipPath
       clipPathUnits="userSpaceOnUse"
       id="clipPath2">
      <path
         d="M 0,409 H 1022 V 0 H 0 Z"
         transform="translate(-204.9901,-114.30511)"
         id="path2" />
    </clipPath>
    <clipPath
       clipPathUnits="userSpaceOnUse"
       id="clipPath4">
      <path
         d="M 0,409 H 1022 V 0 H 0 Z"
         transform="translate(-304.68211,-106.729)"
         id="path4" />
    </clipPath>
    <clipPath
       clipPathUnits="userSpaceOnUse"
       id="clipPath6">
      <path
         d="M 0,409 H 1022 V 0 H 0 Z"
         transform="translate(-339.67571,-81.1148)"
         id="path6" />
    </clipPath>
    <clipPath
       clipPathUnits="userSpaceOnUse"
       id="clipPath8">
      <path
         d="M 0,409 H 1022 V 0 H 0 Z"
         transform="translate(-472.43761,-139.7999)"
         id="path8" />
    </clipPath>
    <clipPath
       clipPathUnits="userSpaceOnUse"
       id="clipPath10">
      <path
         d="M 0,409 H 1022 V 0 H 0 Z"
         transform="translate(-526.07071,-108.4129)"
         id="path10" />
    </clipPath>
    <clipPath
       clipPathUnits="userSpaceOnUse"
       id="clipPath12">
      <path
         d="M 0,409 H 1022 V 0 H 0 Z"
         transform="translate(-649.57262,-113.7046)"
         id="path12" />
    </clipPath>
    <clipPath
       clipPathUnits="userSpaceOnUse"
       id="clipPath14">
      <path
         d="M 0,409 H 1022 V 0 H 0 Z"
         transform="translate(-720.28142,-105.40681)"
         id="path14" />
    </clipPath>
    <clipPath
       clipPathUnits="userSpaceOnUse"
       id="clipPath16">
      <path
         d="M 0,409 H 1022 V 0 H 0 Z"
         id="path16" />
    </clipPath>
    <clipPath
       clipPathUnits="userSpaceOnUse"
       id="clipPath18">
      <path
         d="M 0,409 H 1022 V 0 H 0 Z"
         id="path18" />
    </clipPath>
    <clipPath
       clipPathUnits="userSpaceOnUse"
       id="clipPath20">
      <path
         d="M 0,409 H 1022 V 0 H 0 Z"
         transform="translate(-802.534,-79.191199)"
         id="path20" />
    </clipPath>
    <clipPath
       clipPathUnits="userSpaceOnUse"
       id="clipPath22">
      <path
         d="M 0,409 H 1022 V 0 H 0 Z"
         transform="translate(-921.4669,-113.7046)"
         id="path22" />
    </clipPath>
    <clipPath
       clipPathUnits="userSpaceOnUse"
       id="clipPath24">
      <path
         d="M 0,409 H 1022 V 0 H 0 Z"
         transform="translate(-110.1957,-134.6336)"
         id="path24" />
    </clipPath>
    <clipPath
       clipPathUnits="userSpaceOnUse"
       id="clipPath26">
      <path
         d="M 0,409 H 1022 V 0 H 0 Z"
         transform="translate(-196.4053,-172.4068)"
         id="path26" />
    </clipPath>
    <clipPath
       clipPathUnits="userSpaceOnUse"
       id="clipPath28">
      <path
         d="M 0,409 H 1022 V 0 H 0 Z"
         transform="translate(-420.46021,-272.76061)"
         id="path28" />
    </clipPath>
    <clipPath
       clipPathUnits="userSpaceOnUse"
       id="clipPath30">
      <path
         d="M 0,409 H 1022 V 0 H 0 Z"
         transform="translate(-415.42711,-263.5979)"
         id="path30" />
    </clipPath>
    <clipPath
       clipPathUnits="userSpaceOnUse"
       id="clipPath32">
      <path
         d="M 0,409 H 1022 V 0 H 0 Z"
         id="path32" />
    </clipPath>
  </defs>
  <g
     inkscape:label="Camada 1"
     inkscape:groupmode="layer"
     id="layer1"
     transform="translate(48.382493,-66.208509)">
    <g
       id="g1"
       transform="translate(-12.399157,-2.5831576)"
       inkscape:export-filename="bitmap_Camada 1.svg"
       inkscape:export-xdpi="96"
       inkscape:export-ydpi="96"
       inkscape:highlight-color="#46005a"
       style="fill:#46005a;fill-opacity:1">
      <title
         id="title1">logo_principal_roxa</title>
      <path
         id="path1"
         d="M 0,0 H 18.4 C 17.197,5.292 14.311,7.937 9.02,7.937 3.968,7.937 1.203,5.171 0,0 M 43.052,-15.993 H 0 c 1.083,-4.45 3.728,-7.096 9.861,-7.096 4.691,0 8.419,1.684 11.064,4.57 l 18.639,-9.019 c -5.411,-8.298 -16.114,-14.311 -29.342,-14.311 -21.406,0 -35.836,13.229 -35.836,33.312 0,21.044 13.829,35.235 34.634,35.235 20.804,0 34.633,-13.229 34.633,-33.192 0,-3.246 -0.24,-6.734 -0.601,-9.499"
         style="fill:#46005a;fill-opacity:1;fill-rule:nonzero;stroke:none"
         transform="matrix(0.35277776,0,0,-0.35277776,8.9254162,152.4164)"
         clip-path="url(#clipPath2)"
         inkscape:export-filename="logo_principal_roxa.svg"
         inkscape:export-xdpi="96"
         inkscape:export-ydpi="96" />
      <path
         id="path3"
         d="m 0,0 c 0,8.178 -4.93,13.71 -12.265,13.71 -7.217,0 -12.146,-5.532 -12.146,-13.83 0,-8.057 4.929,-13.589 12.146,-13.589 C -4.93,-13.709 0,-8.297 0,0 M 24.051,33.071 V -33.07 H 0.962 l -0.361,6.734 c -4.329,-5.05 -10.462,-7.937 -18.278,-7.937 -17.197,0 -31.507,13.469 -31.507,33.912 0,20.684 14.31,34.635 31.507,34.635 7.816,0 13.949,-2.887 18.278,-8.057 l 0.361,6.854 z"
         style="fill:#46005a;fill-opacity:1;fill-rule:nonzero;stroke:none"
         transform="matrix(0.35277776,0,0,-0.35277776,44.094539,155.08908)"
         clip-path="url(#clipPath4)" />
      <path
         id="path5"
         d="m 0,0 8.899,14.43 c 6.855,-3.367 12.747,-4.449 18.88,-4.449 3.006,0 5.171,0.601 5.171,2.165 0,1.924 -3.367,2.766 -8.778,4.089 l -3.969,0.962 C 8.298,20.083 0.241,24.533 0.241,35.476 c 0,14.671 11.304,24.412 28.62,24.412 11.064,0 20.564,-2.526 27.298,-7.216 L 46.178,37.159 c -5.171,2.646 -10.341,3.968 -15.753,3.968 -3.488,0 -5.772,-0.481 -5.772,-1.803 0,-1.564 3.126,-2.525 7.576,-3.608 l 3.848,-0.962 C 48.703,31.627 57.362,26.216 57.362,13.829 57.362,0.241 45.216,-8.659 27.418,-8.659 16.596,-8.659 7.095,-5.892 0,0"
         style="fill:#46005a;fill-opacity:1;fill-rule:nonzero;stroke:none"
         transform="matrix(0.35277776,0,0,-0.35277776,56.439502,164.1252)"
         clip-path="url(#clipPath6)" />
      <path
         id="path7"
         d="M 0,0 V -58.565 C 0,-79.85 -15.754,-93.8 -39.564,-93.8 c -10.342,0 -19.602,2.766 -26.096,8.057 l 5.171,18.76 c 6.734,-5.05 13.469,-6.253 20.323,-6.253 8.779,0 14.912,4.811 15.994,12.387 -4.81,-4.45 -11.063,-6.495 -16.956,-6.495 -14.31,0 -23.931,10.223 -23.931,25.976 V 0 h 24.051 v -37.88 c 0,-5.292 3.367,-8.9 8.539,-8.9 5.051,0 8.418,3.608 8.418,8.9 V 0 Z"
         style="fill:#46005a;fill-opacity:1;fill-rule:nonzero;stroke:none"
         transform="matrix(0.35277776,0,0,-0.35277776,103.27495,143.42241)"
         clip-path="url(#clipPath8)" />
      <path
         id="path9"
         d="M 0,0 H 41.849 C 41.127,14.19 33.19,23.089 20.925,23.089 8.659,23.089 0.842,14.19 0,0 M 50.748,-6.133 H 0 c 1.083,-13.83 8.538,-22.848 21.165,-22.848 8.538,0 15.634,4.208 20.564,10.823 l 6.614,-3.728 c -6.133,-9.14 -15.874,-14.071 -27.178,-14.071 -18.159,0 -30.425,13.229 -30.425,33.071 0,19.722 12.026,32.95 30.185,32.95 17.918,0 29.943,-12.867 29.943,-32.228 0,-1.083 0,-3.007 -0.12,-3.969"
         style="fill:#46005a;fill-opacity:1;fill-rule:nonzero;stroke:none"
         transform="matrix(0.35277776,0,0,-0.35277776,122.19552,154.49504)"
         clip-path="url(#clipPath10)" />
      <path
         id="path11"
         d="m 0,0 v -40.046 h -8.658 v 38.362 c 0,11.424 -8.057,18.88 -20.083,18.88 -12.146,0 -20.203,-7.456 -20.203,-18.88 v -38.362 h -8.659 v 63.615 h 8.419 l 0.12,-10.702 c 4.209,7.456 11.905,11.905 22.969,11.905 C -10.462,24.772 0,14.912 0,0"
         style="fill:#46005a;fill-opacity:1;fill-rule:nonzero;stroke:none"
         transform="matrix(0.35277776,0,0,-0.35277776,165.76424,152.62825)"
         clip-path="url(#clipPath12)" />
      <path
         id="path13"
         d="m 0,0 c 0,15.393 -9.38,25.494 -23.33,25.494 -14.069,0 -23.45,-10.101 -23.45,-25.374 0,-15.392 9.381,-25.615 23.45,-25.615 C -9.38,-25.495 0,-15.272 0,0 m 8.659,31.867 v -59.045 c 0,-19.361 -13.951,-32.229 -34.875,-32.229 -11.183,0 -20.804,2.766 -28.019,8.298 l 1.924,6.975 c 6.855,-4.93 15.152,-7.817 25.735,-7.817 15.994,0 26.576,10.102 26.576,25.254 v 8.658 c -4.329,-9.019 -12.747,-14.912 -25.374,-14.912 -17.798,0 -30.545,13.229 -30.545,33.192 0,19.722 12.747,32.829 30.545,32.829 12.627,0 21.045,-5.892 25.374,-14.912 l 0.241,13.709 z"
         style="fill:#46005a;fill-opacity:1;fill-rule:nonzero;stroke:none"
         transform="matrix(0.35277776,0,0,-0.35277776,190.70873,155.55553)"
         clip-path="url(#clipPath14)" />
      <path
         id="path15"
         d="m 748.781,167.459 h 8.659 v -93.8 h -8.659 z"
         style="fill:#46005a;fill-opacity:1;fill-rule:nonzero;stroke:none"
         transform="matrix(0.35277776,0,0,-0.35277776,-63.390534,192.7407)"
         clip-path="url(#clipPath16)" />
      <path
         id="path17"
         d="m 777.642,137.274 h 8.659 V 73.659 h -8.659 z m -1.562,21.767 c 0,3.367 2.525,5.892 5.892,5.892 3.247,0 5.773,-2.525 5.773,-5.892 0,-3.247 -2.526,-5.773 -5.773,-5.773 -3.367,0 -5.892,2.526 -5.892,5.773"
         style="fill:#46005a;fill-opacity:1;fill-rule:nonzero;stroke:none"
         transform="matrix(0.35277776,0,0,-0.35277776,-63.390534,192.7407)"
         clip-path="url(#clipPath18)" />
      <path
         id="path19"
         d="m 0,0 3.608,5.411 c 5.291,-3.848 11.664,-5.17 18.279,-5.17 9.019,0 15.032,4.208 15.032,10.702 0,6.013 -5.652,9.38 -13.349,11.545 l -6.854,2.044 C 6.735,27.297 -0.12,31.266 -0.12,40.766 c 0,11.184 8.899,18.52 22.368,18.52 8.537,0 15.513,-1.804 21.646,-5.772 l -3.728,-5.893 c -5.412,3.367 -11.184,4.69 -17.317,4.69 -8.418,0 -14.07,-3.969 -14.07,-10.222 0,-5.893 4.931,-8.538 11.785,-10.462 l 6.854,-2.044 c 9.621,-2.646 18.399,-7.456 18.399,-17.918 0,-11.065 -9.259,-18.4 -23.93,-18.4 C 12.868,-6.735 4.931,-4.45 0,0"
         style="fill:#46005a;fill-opacity:1;fill-rule:nonzero;stroke:none"
         transform="matrix(0.35277776,0,0,-0.35277776,219.72561,164.80381)"
         clip-path="url(#clipPath20)" />
      <path
         id="path21"
         d="m 0,0 v -40.046 h -8.658 v 38.362 c 0,11.424 -8.057,18.88 -20.083,18.88 -12.146,0 -20.203,-7.456 -20.203,-18.88 v -38.362 h -8.658 v 93.8 h 8.658 V 12.987 c 4.089,7.456 11.906,11.785 22.849,11.785 C -10.462,24.772 0,14.912 0,0"
         style="display:inline;fill:#46005a;fill-opacity:1;fill-rule:nonzero;stroke:none"
         transform="matrix(0.35277776,0,0,-0.35277776,261.6825,152.62825)"
         clip-path="url(#clipPath22)" />
      <path
         id="path23"
         d="m 0,0 h -32.506 l 26.981,-58.009 h 39.122 c -6.701,9.108 -13.401,18.217 -20.101,27.325 z"
         style="fill:#46005a;fill-opacity:1;fill-rule:nonzero;stroke:none"
         transform="matrix(0.35277776,0,0,-0.35277776,-24.51594,145.24496)"
         clip-path="url(#clipPath24)" />
      <path
         id="path25"
         d="m 0,0 h -38.984 l -33.73,-68.457 c 8.93,-5.05 17.859,-10.101 26.789,-15.151 z"
         style="fill:#46005a;fill-opacity:1;fill-rule:nonzero;stroke:none"
         transform="matrix(0.35277776,0,0,-0.35277776,5.8968895,131.91942)"
         clip-path="url(#clipPath26)" />
      <path
         id="path27"
         d="m 0,0 c 0.015,-0.008 0.029,-0.016 0.044,-0.025 -1.693,-3.046 -3.385,-6.092 -5.077,-9.138 h -29.445 l -20.307,43.66 h 24.466 L -20.162,11.403 5.224,62.926 h 29.341 z m 50.14,-36.003 v 14.172 84.928 0.209 c 0,1.786 -0.337,3.494 -0.926,5.088 -2.116,5.944 -7.669,10.197 -14.207,10.197 h -0.857 -94.39 -1.022 c -8.357,0 -15.133,-6.937 -15.133,-15.494 v -84.928 c 0,-8.557 6.776,-15.494 15.133,-15.494 h 5.285 c 5.32,-0.359 11.767,-0.094 19.541,0 h 25.056 c 11.992,0.63 19.623,-2.403 24.385,-5.303 6.894,-4.2 17.837,-14.252 28.789,-21.214 1.281,-0.814 4.075,-2.542 6.061,-1.515 2.151,1.113 2.236,4.876 2.273,8.334 0.079,7.296 0.077,14.305 0.012,21.02"
         style="fill:#46005a;fill-opacity:1;fill-rule:nonzero;stroke:none"
         transform="matrix(0.35277776,0,0,-0.35277776,84.938479,96.516824)"
         clip-path="url(#clipPath28)" />
      <path
         id="path29"
         d="M 0,0 5.033,9.163 C -1.688,12.964 -8.408,16.765 -15.129,20.566 -10.086,13.71 -5.043,6.855 0,0"
         style="fill:#46005a;fill-opacity:1;fill-rule:nonzero;stroke:none"
         transform="matrix(0.35277776,0,0,-0.35277776,83.162913,99.749223)"
         clip-path="url(#clipPath30)" />
      <path
         id="path31"
         d="m 588.976,258.122 h -63.855 v 7.842 h 63.855 z m 0,-23.525 h -63.855 v 7.842 h 63.855 z m 0,-25.766 h -63.855 v 7.842 h 63.855 z m 15.214,84.342 h -1.022 -94.39 -0.858 c -6.537,0 -12.09,-4.253 -14.206,-10.197 -0.589,-1.594 -0.926,-3.301 -0.926,-5.088 v -0.208 -84.929 -14.172 c -0.066,-6.714 -0.068,-13.724 0.012,-21.02 0.037,-3.457 0.122,-7.221 2.273,-8.333 1.986,-1.028 4.78,0.701 6.061,1.515 10.952,6.961 21.895,17.014 28.789,21.213 4.762,2.9 12.393,5.933 24.385,5.303 h 25.056 c 7.774,-0.094 14.221,-0.359 19.541,0 h 5.285 c 8.357,0 15.132,6.937 15.132,15.494 v 84.929 c 0,8.557 -6.775,15.493 -15.132,15.493"
         style="fill:#46005a;fill-opacity:1;fill-rule:nonzero;stroke:none;stroke-width:1.00063;stroke-dasharray:none"
         transform="matrix(0.35277776,0,0,-0.35277776,-63.390534,192.7407)"
         clip-path="url(#clipPath32)" />
    </g>
  </g>
</svg>
